<svg xmlns="http://www.w3.org/2000/svg" xmlns:xlink="http://www.w3.org/1999/xlink" viewBox="0 0 500 500" width="500" height="500" preserveAspectRatio="xMidYMid meet" style="width: 100%; height: 100%; transform: translate3d(0px, 0px, 0px); content-visibility: visible;"><defs><clipPath id="__lottie_element_2"><rect width="500" height="500" x="0" y="0"></rect></clipPath><clipPath id="__lottie_element_4"><path d="M0,0 L500,0 L500,500 L0,500z"></path></clipPath><g id="__lottie_element_7"><g style="display: none;"><g><path></path></g></g></g><g id="__lottie_element_17"><g style="display: none;"><g><path></path></g></g></g><clipPath id="__lottie_element_20"><path d="M0,0 L1920,0 L1920,1080 L0,1080z"></path></clipPath><mask id="__lottie_element_7_1" mask-type="alpha"><use xlink:href="#__lottie_element_7"></use></mask><g id="__lottie_element_35"><g style="display: none;"><g><path></path></g></g></g><clipPath id="__lottie_element_39"><path d="M0,0 L1920,0 L1920,1080 L0,1080z"></path></clipPath><mask id="__lottie_element_35_1" mask-type="alpha"><use xlink:href="#__lottie_element_35"></use></mask><g id="__lottie_element_54"><g style="display: none;"><g><path></path></g></g></g><clipPath id="__lottie_element_58"><path d="M0,0 L1920,0 L1920,1080 L0,1080z"></path></clipPath><mask id="__lottie_element_54_1" mask-type="alpha"><use xlink:href="#__lottie_element_54"></use></mask><g id="__lottie_element_73"><g style="display: none;"><g><path></path></g></g></g><mask id="__lottie_element_73_1" mask-type="alpha"><use xlink:href="#__lottie_element_73"></use></mask><g id="__lottie_element_79"><g style="display: none;"><g><path></path></g></g></g><mask id="__lottie_element_79_1" mask-type="alpha"><use xlink:href="#__lottie_element_79"></use></mask><g id="__lottie_element_85"><g style="display: none;"><g><path></path></g></g></g><mask id="__lottie_element_85_1" mask-type="alpha"><use xlink:href="#__lottie_element_85"></use></mask><mask id="__lottie_element_17_1" mask-type="alpha"><use xlink:href="#__lottie_element_17"></use></mask><clipPath id="__lottie_element_92"><path d="M0,0 L500,0 L500,500 L0,500z"></path></clipPath><g id="__lottie_element_95"><g transform="matrix(1,0,0,1,250,249.99998474121094)" opacity="1" style="display: block;"><g opacity="1" transform="matrix(1,0,0,1,0,0)"><path fill="rgb(0,0,0)" fill-opacity="1" d=" M-6.815999984741211,-205.02699279785156 C-27.736000061035156,-168.81900024414062 -177.16000366210938,89.8479995727539 -194.197998046875,119.68800354003906 C-196.14500427246094,124.37200164794922 -192.5540008544922,130.27999877929688 -187.44900512695312,130.3719940185547 C-186.08099365234375,130.50399780273438 -175.63400268554688,130.43800354003906 -173.63400268554688,130.4510040283203 C-75.98300170898438,130.49099731445312 85.63800048828125,130.4250030517578 183.55299377441406,130.4510040283203 C185.07899475097656,130.4510040283203 187.34300231933594,130.46400451660156 187.447998046875,130.3719940185547 C188.0659942626953,130.4250030517578 188.55299377441406,130.1739959716797 189.1060028076172,130.1479949951172 C193.3560028076172,128.8719940185547 195.92100524902344,123.87200164794922 194.19700622558594,119.70099639892578 C193.78900146484375,119.10900115966797 193.9600067138672,119.03099822998047 192.85499572753906,117.21499633789062 C143.26600646972656,31.246999740600586 71.40299987792969,-93.10099792480469 21.695999145507812,-179.24000549316406 C18.643999099731445,-184.29200744628906 9.82800006866455,-199.97500610351562 6.815000057220459,-205.01400756835938 C3.8550000190734863,-210.1580047607422 -3.86899995803833,-210.2239990234375 -6.828999996185303,-205.01400756835938 C-6.828999996185303,-205.01400756835938 -6.815999984741211,-205.02699279785156 -6.815999984741211,-205.02699279785156z"></path></g></g></g><g id="__lottie_element_105"><g transform="matrix(1,0,0,1,250,249.99998474121094)" opacity="1" style="display: block;"><g opacity="1" transform="matrix(1,0,0,1,0,0)"><path fill="rgb(0,0,0)" fill-opacity="1" d=" M-6.815999984741211,-205.02699279785156 C-27.736000061035156,-168.81900024414062 -177.16000366210938,89.8479995727539 -194.197998046875,119.68800354003906 C-196.14500427246094,124.37200164794922 -192.5540008544922,130.27999877929688 -187.44900512695312,130.3719940185547 C-186.08099365234375,130.50399780273438 -175.63400268554688,130.43800354003906 -173.63400268554688,130.4510040283203 C-75.98300170898438,130.49099731445312 85.63800048828125,130.4250030517578 183.55299377441406,130.4510040283203 C185.07899475097656,130.4510040283203 187.34300231933594,130.46400451660156 187.447998046875,130.3719940185547 C188.0659942626953,130.4250030517578 188.55299377441406,130.1739959716797 189.1060028076172,130.1479949951172 C193.3560028076172,128.8719940185547 195.92100524902344,123.87200164794922 194.19700622558594,119.70099639892578 C193.78900146484375,119.10900115966797 193.9600067138672,119.03099822998047 192.85499572753906,117.21499633789062 C143.26600646972656,31.246999740600586 71.40299987792969,-93.10099792480469 21.695999145507812,-179.24000549316406 C18.643999099731445,-184.29200744628906 9.82800006866455,-199.97500610351562 6.815000057220459,-205.01400756835938 C3.8550000190734863,-210.1580047607422 -3.86899995803833,-210.2239990234375 -6.828999996185303,-205.01400756835938 C-6.828999996185303,-205.01400756835938 -6.815999984741211,-205.02699279785156 -6.815999984741211,-205.02699279785156z"></path></g></g></g><clipPath id="__lottie_element_108"><path d="M0,0 L1920,0 L1920,1080 L0,1080z"></path></clipPath><mask id="__lottie_element_95_1" mask-type="alpha"><use xlink:href="#__lottie_element_95"></use></mask><g id="__lottie_element_123"><g transform="matrix(1,0,0,1,250,249.99998474121094)" opacity="1" style="display: block;"><g opacity="1" transform="matrix(1,0,0,1,0,0)"><path fill="rgb(0,0,0)" fill-opacity="1" d=" M-6.815999984741211,-205.02699279785156 C-27.736000061035156,-168.81900024414062 -177.16000366210938,89.8479995727539 -194.197998046875,119.68800354003906 C-196.14500427246094,124.37200164794922 -192.5540008544922,130.27999877929688 -187.44900512695312,130.3719940185547 C-186.08099365234375,130.50399780273438 -175.63400268554688,130.43800354003906 -173.63400268554688,130.4510040283203 C-75.98300170898438,130.49099731445312 85.63800048828125,130.4250030517578 183.55299377441406,130.4510040283203 C185.07899475097656,130.4510040283203 187.34300231933594,130.46400451660156 187.447998046875,130.3719940185547 C188.0659942626953,130.4250030517578 188.55299377441406,130.1739959716797 189.1060028076172,130.1479949951172 C193.3560028076172,128.8719940185547 195.92100524902344,123.87200164794922 194.19700622558594,119.70099639892578 C193.78900146484375,119.10900115966797 193.9600067138672,119.03099822998047 192.85499572753906,117.21499633789062 C143.26600646972656,31.246999740600586 71.40299987792969,-93.10099792480469 21.695999145507812,-179.24000549316406 C18.643999099731445,-184.29200744628906 9.82800006866455,-199.97500610351562 6.815000057220459,-205.01400756835938 C3.8550000190734863,-210.1580047607422 -3.86899995803833,-210.2239990234375 -6.828999996185303,-205.01400756835938 C-6.828999996185303,-205.01400756835938 -6.815999984741211,-205.02699279785156 -6.815999984741211,-205.02699279785156z"></path></g></g></g><clipPath id="__lottie_element_127"><path d="M0,0 L1920,0 L1920,1080 L0,1080z"></path></clipPath><mask id="__lottie_element_123_1" mask-type="alpha"><use xlink:href="#__lottie_element_123"></use></mask><g id="__lottie_element_142"><g transform="matrix(1,0,0,1,250,249.99998474121094)" opacity="1" style="display: block;"><g opacity="1" transform="matrix(1,0,0,1,0,0)"><path fill="rgb(0,0,0)" fill-opacity="1" d=" M-6.815999984741211,-205.02699279785156 C-27.736000061035156,-168.81900024414062 -177.16000366210938,89.8479995727539 -194.197998046875,119.68800354003906 C-196.14500427246094,124.37200164794922 -192.5540008544922,130.27999877929688 -187.44900512695312,130.3719940185547 C-186.08099365234375,130.50399780273438 -175.63400268554688,130.43800354003906 -173.63400268554688,130.4510040283203 C-75.98300170898438,130.49099731445312 85.63800048828125,130.4250030517578 183.55299377441406,130.4510040283203 C185.07899475097656,130.4510040283203 187.34300231933594,130.46400451660156 187.447998046875,130.3719940185547 C188.0659942626953,130.4250030517578 188.55299377441406,130.1739959716797 189.1060028076172,130.1479949951172 C193.3560028076172,128.8719940185547 195.92100524902344,123.87200164794922 194.19700622558594,119.70099639892578 C193.78900146484375,119.10900115966797 193.9600067138672,119.03099822998047 192.85499572753906,117.21499633789062 C143.26600646972656,31.246999740600586 71.40299987792969,-93.10099792480469 21.695999145507812,-179.24000549316406 C18.643999099731445,-184.29200744628906 9.82800006866455,-199.97500610351562 6.815000057220459,-205.01400756835938 C3.8550000190734863,-210.1580047607422 -3.86899995803833,-210.2239990234375 -6.828999996185303,-205.01400756835938 C-6.828999996185303,-205.01400756835938 -6.815999984741211,-205.02699279785156 -6.815999984741211,-205.02699279785156z"></path></g></g></g><clipPath id="__lottie_element_146"><path d="M0,0 L1920,0 L1920,1080 L0,1080z"></path></clipPath><mask id="__lottie_element_142_1" mask-type="alpha"><use xlink:href="#__lottie_element_142"></use></mask><g id="__lottie_element_161"><g transform="matrix(1,0,0,1,250,249.99998474121094)" opacity="1" style="display: block;"><g opacity="1" transform="matrix(1,0,0,1,0,0)"><path fill="rgb(0,0,0)" fill-opacity="1" d=" M-6.815999984741211,-205.02699279785156 C-27.736000061035156,-168.81900024414062 -177.16000366210938,89.8479995727539 -194.197998046875,119.68800354003906 C-196.14500427246094,124.37200164794922 -192.5540008544922,130.27999877929688 -187.44900512695312,130.3719940185547 C-186.08099365234375,130.50399780273438 -175.63400268554688,130.43800354003906 -173.63400268554688,130.4510040283203 C-75.98300170898438,130.49099731445312 85.63800048828125,130.4250030517578 183.55299377441406,130.4510040283203 C185.07899475097656,130.4510040283203 187.34300231933594,130.46400451660156 187.447998046875,130.3719940185547 C188.0659942626953,130.4250030517578 188.55299377441406,130.1739959716797 189.1060028076172,130.1479949951172 C193.3560028076172,128.8719940185547 195.92100524902344,123.87200164794922 194.19700622558594,119.70099639892578 C193.78900146484375,119.10900115966797 193.9600067138672,119.03099822998047 192.85499572753906,117.21499633789062 C143.26600646972656,31.246999740600586 71.40299987792969,-93.10099792480469 21.695999145507812,-179.24000549316406 C18.643999099731445,-184.29200744628906 9.82800006866455,-199.97500610351562 6.815000057220459,-205.01400756835938 C3.8550000190734863,-210.1580047607422 -3.86899995803833,-210.2239990234375 -6.828999996185303,-205.01400756835938 C-6.828999996185303,-205.01400756835938 -6.815999984741211,-205.02699279785156 -6.815999984741211,-205.02699279785156z"></path></g></g></g><mask id="__lottie_element_161_1" mask-type="alpha"><use xlink:href="#__lottie_element_161"></use></mask><g id="__lottie_element_167"><g transform="matrix(1,0,0,1,250,249.99998474121094)" opacity="1" style="display: block;"><g opacity="1" transform="matrix(1,0,0,1,0,0)"><path fill="rgb(0,0,0)" fill-opacity="1" d=" M-6.815999984741211,-205.02699279785156 C-27.736000061035156,-168.81900024414062 -177.16000366210938,89.8479995727539 -194.197998046875,119.68800354003906 C-196.14500427246094,124.37200164794922 -192.5540008544922,130.27999877929688 -187.44900512695312,130.3719940185547 C-186.08099365234375,130.50399780273438 -175.63400268554688,130.43800354003906 -173.63400268554688,130.4510040283203 C-75.98300170898438,130.49099731445312 85.63800048828125,130.4250030517578 183.55299377441406,130.4510040283203 C185.07899475097656,130.4510040283203 187.34300231933594,130.46400451660156 187.447998046875,130.3719940185547 C188.0659942626953,130.4250030517578 188.55299377441406,130.1739959716797 189.1060028076172,130.1479949951172 C193.3560028076172,128.8719940185547 195.92100524902344,123.87200164794922 194.19700622558594,119.70099639892578 C193.78900146484375,119.10900115966797 193.9600067138672,119.03099822998047 192.85499572753906,117.21499633789062 C143.26600646972656,31.246999740600586 71.40299987792969,-93.10099792480469 21.695999145507812,-179.24000549316406 C18.643999099731445,-184.29200744628906 9.82800006866455,-199.97500610351562 6.815000057220459,-205.01400756835938 C3.8550000190734863,-210.1580047607422 -3.86899995803833,-210.2239990234375 -6.828999996185303,-205.01400756835938 C-6.828999996185303,-205.01400756835938 -6.815999984741211,-205.02699279785156 -6.815999984741211,-205.02699279785156z"></path></g></g></g><mask id="__lottie_element_167_1" mask-type="alpha"><use xlink:href="#__lottie_element_167"></use></mask><g id="__lottie_element_173"><g transform="matrix(1,0,0,1,250,249.99998474121094)" opacity="1" style="display: block;"><g opacity="1" transform="matrix(1,0,0,1,0,0)"><path fill="rgb(0,0,0)" fill-opacity="1" d=" M-6.815999984741211,-205.02699279785156 C-27.736000061035156,-168.81900024414062 -177.16000366210938,89.8479995727539 -194.197998046875,119.68800354003906 C-196.14500427246094,124.37200164794922 -192.5540008544922,130.27999877929688 -187.44900512695312,130.3719940185547 C-186.08099365234375,130.50399780273438 -175.63400268554688,130.43800354003906 -173.63400268554688,130.4510040283203 C-75.98300170898438,130.49099731445312 85.63800048828125,130.4250030517578 183.55299377441406,130.4510040283203 C185.07899475097656,130.4510040283203 187.34300231933594,130.46400451660156 187.447998046875,130.3719940185547 C188.0659942626953,130.4250030517578 188.55299377441406,130.1739959716797 189.1060028076172,130.1479949951172 C193.3560028076172,128.8719940185547 195.92100524902344,123.87200164794922 194.19700622558594,119.70099639892578 C193.78900146484375,119.10900115966797 193.9600067138672,119.03099822998047 192.85499572753906,117.21499633789062 C143.26600646972656,31.246999740600586 71.40299987792969,-93.10099792480469 21.695999145507812,-179.24000549316406 C18.643999099731445,-184.29200744628906 9.82800006866455,-199.97500610351562 6.815000057220459,-205.01400756835938 C3.8550000190734863,-210.1580047607422 -3.86899995803833,-210.2239990234375 -6.828999996185303,-205.01400756835938 C-6.828999996185303,-205.01400756835938 -6.815999984741211,-205.02699279785156 -6.815999984741211,-205.02699279785156z"></path></g></g></g><mask id="__lottie_element_173_1" mask-type="alpha"><use xlink:href="#__lottie_element_173"></use></mask><mask id="__lottie_element_105_1" mask-type="alpha"><use xlink:href="#__lottie_element_105"></use></mask><clipPath id="__lottie_element_180"><path d="M0,0 L500,0 L500,500 L0,500z"></path></clipPath><g id="__lottie_element_183"><g style="display: none;"><g><path></path></g></g></g><g id="__lottie_element_193"><g style="display: none;"><g><path></path></g></g></g><clipPath id="__lottie_element_196"><path d="M0,0 L1920,0 L1920,1080 L0,1080z"></path></clipPath><mask id="__lottie_element_183_1" mask-type="alpha"><use xlink:href="#__lottie_element_183"></use></mask><g id="__lottie_element_211"><g style="display: none;"><g><path></path></g></g></g><clipPath id="__lottie_element_215"><path d="M0,0 L1920,0 L1920,1080 L0,1080z"></path></clipPath><mask id="__lottie_element_211_1" mask-type="alpha"><use xlink:href="#__lottie_element_211"></use></mask><g id="__lottie_element_230"><g style="display: none;"><g><path></path></g></g></g><clipPath id="__lottie_element_234"><path d="M0,0 L1920,0 L1920,1080 L0,1080z"></path></clipPath><mask id="__lottie_element_230_1" mask-type="alpha"><use xlink:href="#__lottie_element_230"></use></mask><g id="__lottie_element_249"><g style="display: none;"><g><path></path></g></g></g><mask id="__lottie_element_249_1" mask-type="alpha"><use xlink:href="#__lottie_element_249"></use></mask><g id="__lottie_element_255"><g style="display: none;"><g><path></path></g></g></g><mask id="__lottie_element_255_1" mask-type="alpha"><use xlink:href="#__lottie_element_255"></use></mask><g id="__lottie_element_261"><g style="display: none;"><g><path></path></g></g></g><mask id="__lottie_element_261_1" mask-type="alpha"><use xlink:href="#__lottie_element_261"></use></mask><mask id="__lottie_element_193_1" mask-type="alpha"><use xlink:href="#__lottie_element_193"></use></mask></defs><g clip-path="url(#__lottie_element_2)"><g clip-path="url(#__lottie_element_180)" style="display: none;"><g style="display: none;"><g><path></path></g></g><g mask="url(#__lottie_element_193_1)" style="display: none;"><g><g><path></path></g></g></g><g mask="url(#__lottie_element_261_1)" style="display: none;"><g><g><path></path></g></g></g><g mask="url(#__lottie_element_255_1)" style="display: none;"><g><g><path></path></g></g></g><g mask="url(#__lottie_element_249_1)" style="display: none;"><g><g><path></path></g></g></g><g mask="url(#__lottie_element_230_1)" style="display: none;"><g clip-path="url(#__lottie_element_234)"><g style="display: none;"><g><path></path></g></g><g style="display: none;"><g><path></path></g></g><g style="display: none;"><g><path></path></g></g><g style="display: none;"><g><path></path></g></g></g></g><g mask="url(#__lottie_element_211_1)" style="display: none;"><g clip-path="url(#__lottie_element_215)"><g style="display: none;"><g><path></path></g></g><g style="display: none;"><g><path></path></g></g><g style="display: none;"><g><path></path></g></g><g style="display: none;"><g><path></path></g></g></g></g><g mask="url(#__lottie_element_183_1)" style="display: none;"><g clip-path="url(#__lottie_element_196)"><g style="display: none;"><g><path></path></g></g><g style="display: none;"><g><path></path></g></g><g style="display: none;"><g><path></path></g></g><g style="display: none;"><g><path></path></g></g></g></g></g><g clip-path="url(#__lottie_element_92)" transform="matrix(1,0,0,1,0,24)" opacity="1" style="display: block;"><g transform="matrix(1,0,0,1,250,249.99998474121094)" opacity="1" style="display: block;"><g opacity="1" transform="matrix(1,0,0,1,0,0)"><path fill="rgb(0,0,0)" fill-opacity="1" d=" M-6.815999984741211,-205.02699279785156 C-27.736000061035156,-168.81900024414062 -177.16000366210938,89.8479995727539 -194.197998046875,119.68800354003906 C-196.14500427246094,124.37200164794922 -192.5540008544922,130.27999877929688 -187.44900512695312,130.3719940185547 C-186.08099365234375,130.50399780273438 -175.63400268554688,130.43800354003906 -173.63400268554688,130.4510040283203 C-75.98300170898438,130.49099731445312 85.63800048828125,130.4250030517578 183.55299377441406,130.4510040283203 C185.07899475097656,130.4510040283203 187.34300231933594,130.46400451660156 187.447998046875,130.3719940185547 C188.0659942626953,130.4250030517578 188.55299377441406,130.1739959716797 189.1060028076172,130.1479949951172 C193.3560028076172,128.8719940185547 195.92100524902344,123.87200164794922 194.19700622558594,119.70099639892578 C193.78900146484375,119.10900115966797 193.9600067138672,119.03099822998047 192.85499572753906,117.21499633789062 C143.26600646972656,31.246999740600586 71.40299987792969,-93.10099792480469 21.695999145507812,-179.24000549316406 C18.643999099731445,-184.29200744628906 9.82800006866455,-199.97500610351562 6.815000057220459,-205.01400756835938 C3.8550000190734863,-210.1580047607422 -3.86899995803833,-210.2239990234375 -6.828999996185303,-205.01400756835938 C-6.828999996185303,-205.01400756835938 -6.815999984741211,-205.02699279785156 -6.815999984741211,-205.02699279785156z M-27.32699966430664,-216.86900329589844 C-18.222000122070312,-232.9340057373047 3.6700000762939453,-237.5780029296875 18.57699966430664,-226.63099670410156 C22.14299964904785,-223.98599243164062 25.09000015258789,-220.5919952392578 27.34000015258789,-216.86900329589844 C27.34000015258789,-216.86900329589844 32.29999923706055,-208.27699279785156 32.29999923706055,-208.27699279785156 C32.29999923706055,-208.27699279785156 42.22100067138672,-191.093994140625 42.22100067138672,-191.093994140625 C86.52100372314453,-114.36199951171875 156.67300415039062,7.14300012588501 200.97300720214844,83.875 C200.97300720214844,83.875 210.8939971923828,101.05799865722656 210.8939971923828,101.05799865722656 C212.56500244140625,104.04499816894531 214.10400390625,106.30799865722656 216.1300048828125,110.7020034790039 C217.73500061035156,114.80699920654297 218.56500244140625,119.24099731445312 218.4199981689453,123.67500305175781 C218.03799438476562,137.05599975585938 208.4459991455078,149.33099365234375 195.53900146484375,152.92300415039062 C191.35499572753906,154.10699462890625 186.39500427246094,154.16000366210938 183.55299377441406,154.10699462890625 C85.44100189208984,153.98899841308594 -75.82499694824219,154.19900512695312 -173.63400268554688,154.10699462890625 C-180.35699462890625,153.8699951171875 -188.14599609375,154.8699951171875 -195.5399932861328,152.91000366210938 C-213.3280029296875,147.9499969482422 -223.22300720214844,127.72699737548828 -216.1179962158203,110.6760025024414 C-198.6320037841797,79.1520004272461 -48.74700164794922,-179.4770050048828 -27.32699966430664,-216.86900329589844z"></path></g></g><g mask="url(#__lottie_element_105_1)" style="display: block;"><g transform="matrix(1,0,0,1,250,250)" opacity="1"><g opacity="1" transform="matrix(1,0,0,1,0,0)"><path fill="rgb(0,0,0)" fill-opacity="1" d=" M-47.86600112915039,-5.974999904632568 C-47.86600112915039,-5.974999904632568 -6.039000034332275,66.48100280761719 -6.039000034332275,66.48100280761719 C-3.3550000190734863,71.13899993896484 3.368000030517578,71.13899993896484 6.052000045776367,66.48100280761719 C6.052000045776367,66.48100280761719 47.87799835205078,-5.974999904632568 47.87799835205078,-5.974999904632568 C50.5620002746582,-10.633000373840332 47.207000732421875,-16.447999954223633 41.8390007019043,-16.447999954223633 C41.8390007019043,-16.447999954223633 -41.8129997253418,-16.447999954223633 -41.8129997253418,-16.447999954223633 C-47.180999755859375,-16.447999954223633 -50.54899978637695,-10.633000373840332 -47.85200119018555,-5.974999904632568 C-47.85200119018555,-5.974999904632568 -47.86600112915039,-5.974999904632568 -47.86600112915039,-5.974999904632568z M-3.684000015258789,41.66699981689453 C-3.684000015258789,41.66699981689453 -25.208999633789062,4.39300012588501 -25.208999633789062,4.39300012588501 C-26.854000091552734,1.5509999990463257 -24.801000595092773,-2.000999927520752 -21.511999130249023,-2.000999927520752 C-21.511999130249023,-2.000999927520752 21.538000106811523,-2.000999927520752 21.538000106811523,-2.000999927520752 C24.81399917602539,-2.000999927520752 26.865999221801758,1.5509999990463257 25.235000610351562,4.39300012588501 C25.235000610351562,4.39300012588501 3.7100000381469727,41.66699981689453 3.7100000381469727,41.66699981689453 C2.065000057220459,44.50899887084961 -2.0260000228881836,44.50899887084961 -3.6710000038146973,41.66699981689453 C-3.6710000038146973,41.66699981689453 -3.684000015258789,41.66699981689453 -3.684000015258789,41.66699981689453z"></path></g></g></g><g mask="url(#__lottie_element_173_1)" style="display: block;"><g transform="matrix(1,0,0,1,250,250)" opacity="1"><g opacity="1" transform="matrix(1,0,0,1,0,0)"><path fill="rgb(0,0,0)" fill-opacity="1" d=" M-19.631000518798828,-202.65899658203125 C-42.5369987487793,-149.43899536132812 -62.220001220703125,-87.64099884033203 -42.904998779296875,-30.51300048828125 C-40.10300064086914,-22.645000457763672 -36.617000579833984,-15.093000411987305 -32.30099868774414,-7.921999931335449 C-32.30099868774414,-7.921999931335449 -44.7869987487793,-0.6200000047683716 -44.7869987487793,-0.6200000047683716 C-49.47100067138672,-8.50100040435791 -53.404998779296875,-17.106000900268555 -56.444000244140625,-25.841999053955078 C-74.19300079345703,-77.97000122070312 -60.970001220703125,-134.2689971923828 -41.95800018310547,-183.87100219726562 C-38.76100158691406,-192.05499267578125 -35.35300064086914,-200.13299560546875 -31.801000595092773,-208.11900329589844 C-31.801000595092773,-208.11900329589844 -19.643999099731445,-202.6719970703125 -19.643999099731445,-202.6719970703125 C-19.643999099731445,-202.6719970703125 -19.631000518798828,-202.65899658203125 -19.631000518798828,-202.65899658203125z"></path></g></g></g><g mask="url(#__lottie_element_167_1)" style="display: block;"><g transform="matrix(1,0,0,1,250,250)" opacity="1"><g opacity="1" transform="matrix(1,0,0,1,0,0)"><path fill="rgb(0,0,0)" fill-opacity="1" d=" M198.03900146484375,106.34700012207031 C163.39700317382812,59.88999938964844 119.72899627685547,11.944999694824219 60.5880012512207,0.11699999868869781 C52.37799835205078,-1.3830000162124634 44.0890007019043,-2.1459999084472656 35.72100067138672,-1.9880000352859497 C35.72100067138672,-1.9880000352859497 35.641998291015625,-16.447999954223633 35.641998291015625,-16.447999954223633 C44.8120002746582,-16.56599998474121 54.220001220703125,-15.67199993133545 63.31100082397461,-13.9350004196167 C117.32099914550781,-3.23799991607666 159.4759979248047,36.35100173950195 192.92100524902344,77.625 C198.40699768066406,84.4800033569336 203.69700622558594,91.4800033569336 208.84100341796875,98.54499816894531 C208.84100341796875,98.54499816894531 198.03900146484375,106.34700012207031 198.03900146484375,106.34700012207031z"></path></g></g></g><g mask="url(#__lottie_element_161_1)" style="display: block;"><g transform="matrix(1,0,0,1,250,250)" opacity="1"><g opacity="1" transform="matrix(1,0,0,1,0,0)"><path fill="rgb(0,0,0)" fill-opacity="1" d=" M-178.41000366210938,140.34500122070312 C-120.86100006103516,133.56900024414062 -57.49599838256836,119.72799682617188 -17.683000564575195,74.41500091552734 C-12.274999618530273,68.05999755859375 -7.4730000495910645,61.25699996948242 -3.4210000038146973,53.92900085449219 C-3.4210000038146973,53.92900085449219 9.144000053405762,61.08700180053711 9.144000053405762,61.08700180053711 C4.6570000648498535,69.08599853515625 -0.8289999961853027,76.7959976196289 -6.868000030517578,83.7959976196289 C-43.141998291015625,125.22799682617188 -98.49400329589844,141.93699645996094 -150.96400451660156,150.26499938964844 C-159.6479949951172,151.58099365234375 -168.343994140625,152.67300415039062 -177.04100036621094,153.593994140625 C-177.04100036621094,153.593994140625 -178.39599609375,140.34500122070312 -178.39599609375,140.34500122070312 C-178.39599609375,140.34500122070312 -178.41000366210938,140.34500122070312 -178.41000366210938,140.34500122070312z"></path></g></g></g><g mask="url(#__lottie_element_142_1)" style="display: block;"><g clip-path="url(#__lottie_element_146)" transform="matrix(1,0,0,1,-710,-290)" opacity="1"><g transform="matrix(1,0,0,1,990.1420288085938,584.5020141601562)" opacity="1" style="display: block;"><g opacity="1" transform="matrix(1,0,0,1,0,0)"><path fill="rgb(0,0,0)" fill-opacity="1" d=" M58.04428482055664,-40.58473205566406 C58.04428482055664,-40.58473205566406 -55.31962585449219,52.16682052612305 -55.31962585449219,52.16682052612305 C-55.31962585449219,52.16682052612305 -61.200626373291016,44.98282241821289 -61.200626373291016,44.98282241821289 C-61.200626373291016,44.98282241821289 46.20862579345703,-53.89387512207031 46.20862579345703,-53.89387512207031 C46.20862579345703,-53.89387512207031 58.04428482055664,-40.58473205566406 58.04428482055664,-40.58473205566406z"></path></g></g><g transform="matrix(1,0,0,1,988.2349853515625,608.3820190429688)" opacity="1" style="display: block;"><g opacity="1" transform="matrix(1,0,0,1,0,0)"><path fill="rgb(0,0,0)" fill-opacity="1" d=" M-95.56954956054688,44.39145278930664 C-95.56954956054688,44.39145278930664 86.21731567382812,-58.27580642700195 86.21731567382812,-58.27580642700195 C86.21731567382812,-58.27580642700195 95.50999450683594,-41.105098724365234 95.50999450683594,-41.105098724365234 C95.50999450683594,-41.105098724365234 -90.88215637207031,53.035091400146484 -90.88215637207031,53.035091400146484 C-90.88215637207031,53.035091400146484 -95.56954956054688,44.39145278930664 -95.56954956054688,44.39145278930664z"></path></g></g><g transform="matrix(1,0,0,1,981.8469848632812,640.9130249023438)" opacity="1" style="display: block;"><g opacity="1" transform="matrix(1,0,0,1,0,0)"><path fill="rgb(0,0,0)" fill-opacity="1" d=" M-148.59066772460938,30.688631057739258 C-148.59066772460938,30.688631057739258 145.4939422607422,-48.819698333740234 145.4939422607422,-48.819698333740234 C145.4939422607422,-48.819698333740234 150.73460388183594,-28.658824920654297 150.73460388183594,-28.658824920654297 C150.73460388183594,-28.658824920654297 -145.95419311523438,40.83951950073242 -145.95419311523438,40.83951950073242 C-145.95419311523438,40.83951950073242 -148.59066772460938,30.688631057739258 -148.59066772460938,30.688631057739258z"></path></g></g><g transform="matrix(1,0,0,1,981.8469848632812,640.9130249023438)" opacity="1" style="display: block;"><g opacity="1" transform="matrix(1,0,0,1,0,0)"><path fill="rgb(0,0,0)" fill-opacity="1" d=" M-203.42098999023438,53.251487731933594 C-203.42098999023438,53.251487731933594 189.23388671875,28.881668090820312 189.23388671875,28.881668090820312 C189.23388671875,28.881668090820312 190.38641357421875,50.65422439575195 190.38641357421875,50.65422439575195 C190.38641357421875,50.65422439575195 -202.84405517578125,64.21372985839844 -202.84405517578125,64.21372985839844 C-202.84405517578125,64.21372985839844 -203.42098999023438,53.251487731933594 -203.42098999023438,53.251487731933594z"></path></g></g></g></g><g mask="url(#__lottie_element_123_1)" style="display: block;"><g clip-path="url(#__lottie_element_127)" transform="matrix(-0.5,0.8660253882408142,-0.8660253882408142,-0.5,1212.0897216796875,-288.34442138671875)" opacity="1"><g transform="matrix(1,0,0,1,990.1420288085938,584.5020141601562)" opacity="1" style="display: block;"><g opacity="1" transform="matrix(1,0,0,1,0,0)"><path fill="rgb(0,0,0)" fill-opacity="1" d=" M58.04428482055664,-40.58473205566406 C58.04428482055664,-40.58473205566406 -55.31962585449219,52.16682052612305 -55.31962585449219,52.16682052612305 C-55.31962585449219,52.16682052612305 -61.200626373291016,44.98282241821289 -61.200626373291016,44.98282241821289 C-61.200626373291016,44.98282241821289 46.20862579345703,-53.89387512207031 46.20862579345703,-53.89387512207031 C46.20862579345703,-53.89387512207031 58.04428482055664,-40.58473205566406 58.04428482055664,-40.58473205566406z"></path></g></g><g transform="matrix(1,0,0,1,988.2349853515625,608.3820190429688)" opacity="1" style="display: block;"><g opacity="1" transform="matrix(1,0,0,1,0,0)"><path fill="rgb(0,0,0)" fill-opacity="1" d=" M-95.56954956054688,44.39145278930664 C-95.56954956054688,44.39145278930664 86.21731567382812,-58.27580642700195 86.21731567382812,-58.27580642700195 C86.21731567382812,-58.27580642700195 95.50999450683594,-41.105098724365234 95.50999450683594,-41.105098724365234 C95.50999450683594,-41.105098724365234 -90.88215637207031,53.035091400146484 -90.88215637207031,53.035091400146484 C-90.88215637207031,53.035091400146484 -95.56954956054688,44.39145278930664 -95.56954956054688,44.39145278930664z"></path></g></g><g transform="matrix(1,0,0,1,981.8469848632812,640.9130249023438)" opacity="1" style="display: block;"><g opacity="1" transform="matrix(1,0,0,1,0,0)"><path fill="rgb(0,0,0)" fill-opacity="1" d=" M-148.59066772460938,30.688631057739258 C-148.59066772460938,30.688631057739258 145.4939422607422,-48.819698333740234 145.4939422607422,-48.819698333740234 C145.4939422607422,-48.819698333740234 150.73460388183594,-28.658824920654297 150.73460388183594,-28.658824920654297 C150.73460388183594,-28.658824920654297 -145.95419311523438,40.83951950073242 -145.95419311523438,40.83951950073242 C-145.95419311523438,40.83951950073242 -148.59066772460938,30.688631057739258 -148.59066772460938,30.688631057739258z"></path></g></g><g transform="matrix(1,0,0,1,981.8469848632812,640.9130249023438)" opacity="1" style="display: block;"><g opacity="1" transform="matrix(1,0,0,1,0,0)"><path fill="rgb(0,0,0)" fill-opacity="1" d=" M-203.42098999023438,53.251487731933594 C-203.42098999023438,53.251487731933594 189.23388671875,28.881668090820312 189.23388671875,28.881668090820312 C189.23388671875,28.881668090820312 190.38641357421875,50.65422439575195 190.38641357421875,50.65422439575195 C190.38641357421875,50.65422439575195 -202.84405517578125,64.21372985839844 -202.84405517578125,64.21372985839844 C-202.84405517578125,64.21372985839844 -203.42098999023438,53.251487731933594 -203.42098999023438,53.251487731933594z"></path></g></g></g></g><g mask="url(#__lottie_element_95_1)" style="display: block;"><g clip-path="url(#__lottie_element_108)" transform="matrix(-0.5,-0.8660253882408142,0.8660253882408142,-0.5,247.78228759765625,1373.443359375)" opacity="1"><g transform="matrix(1,0,0,1,990.1420288085938,584.5020141601562)" opacity="1" style="display: block;"><g opacity="1" transform="matrix(1,0,0,1,0,0)"><path fill="rgb(0,0,0)" fill-opacity="1" d=" M58.04428482055664,-40.58473205566406 C58.04428482055664,-40.58473205566406 -55.31962585449219,52.16682052612305 -55.31962585449219,52.16682052612305 C-55.31962585449219,52.16682052612305 -61.200626373291016,44.98282241821289 -61.200626373291016,44.98282241821289 C-61.200626373291016,44.98282241821289 46.20862579345703,-53.89387512207031 46.20862579345703,-53.89387512207031 C46.20862579345703,-53.89387512207031 58.04428482055664,-40.58473205566406 58.04428482055664,-40.58473205566406z"></path></g></g><g transform="matrix(1,0,0,1,988.2349853515625,608.3820190429688)" opacity="1" style="display: block;"><g opacity="1" transform="matrix(1,0,0,1,0,0)"><path fill="rgb(0,0,0)" fill-opacity="1" d=" M-95.56954956054688,44.39145278930664 C-95.56954956054688,44.39145278930664 86.21731567382812,-58.27580642700195 86.21731567382812,-58.27580642700195 C86.21731567382812,-58.27580642700195 95.50999450683594,-41.105098724365234 95.50999450683594,-41.105098724365234 C95.50999450683594,-41.105098724365234 -90.88215637207031,53.035091400146484 -90.88215637207031,53.035091400146484 C-90.88215637207031,53.035091400146484 -95.56954956054688,44.39145278930664 -95.56954956054688,44.39145278930664z"></path></g></g><g transform="matrix(1,0,0,1,981.8469848632812,640.9130249023438)" opacity="1" style="display: block;"><g opacity="1" transform="matrix(1,0,0,1,0,0)"><path fill="rgb(0,0,0)" fill-opacity="1" d=" M-148.59066772460938,30.688631057739258 C-148.59066772460938,30.688631057739258 145.4939422607422,-48.819698333740234 145.4939422607422,-48.819698333740234 C145.4939422607422,-48.819698333740234 150.73460388183594,-28.658824920654297 150.73460388183594,-28.658824920654297 C150.73460388183594,-28.658824920654297 -145.95419311523438,40.83951950073242 -145.95419311523438,40.83951950073242 C-145.95419311523438,40.83951950073242 -148.59066772460938,30.688631057739258 -148.59066772460938,30.688631057739258z"></path></g></g><g transform="matrix(1,0,0,1,981.8469848632812,640.9130249023438)" opacity="1" style="display: block;"><g opacity="1" transform="matrix(1,0,0,1,0,0)"><path fill="rgb(0,0,0)" fill-opacity="1" d=" M-203.42098999023438,53.251487731933594 C-203.42098999023438,53.251487731933594 189.23388671875,28.881668090820312 189.23388671875,28.881668090820312 C189.23388671875,28.881668090820312 190.38641357421875,50.65422439575195 190.38641357421875,50.65422439575195 C190.38641357421875,50.65422439575195 -202.84405517578125,64.21372985839844 -202.84405517578125,64.21372985839844 C-202.84405517578125,64.21372985839844 -203.42098999023438,53.251487731933594 -203.42098999023438,53.251487731933594z"></path></g></g></g></g></g><g clip-path="url(#__lottie_element_4)" style="display: none;"><g style="display: none;"><g><path></path></g></g><g mask="url(#__lottie_element_17_1)" style="display: none;"><g><g><path></path></g></g></g><g mask="url(#__lottie_element_85_1)" style="display: none;"><g><g><path></path></g></g></g><g mask="url(#__lottie_element_79_1)" style="display: none;"><g><g><path></path></g></g></g><g mask="url(#__lottie_element_73_1)" style="display: none;"><g><g><path></path></g></g></g><g mask="url(#__lottie_element_54_1)" style="display: none;"><g clip-path="url(#__lottie_element_58)"><g style="display: none;"><g><path></path></g></g><g style="display: none;"><g><path></path></g></g><g style="display: none;"><g><path></path></g></g><g style="display: none;"><g><path></path></g></g></g></g><g mask="url(#__lottie_element_35_1)" style="display: none;"><g clip-path="url(#__lottie_element_39)"><g style="display: none;"><g><path></path></g></g><g style="display: none;"><g><path></path></g></g><g style="display: none;"><g><path></path></g></g><g style="display: none;"><g><path></path></g></g></g></g><g mask="url(#__lottie_element_7_1)" style="display: none;"><g clip-path="url(#__lottie_element_20)"><g style="display: none;"><g><path></path></g></g><g style="display: none;"><g><path></path></g></g><g style="display: none;"><g><path></path></g></g><g style="display: none;"><g><path></path></g></g></g></g></g></g></svg>