<svg width="742" height="1010" viewBox="0 0 742 1010" fill="none" xmlns="http://www.w3.org/2000/svg">
<path d="M563.758 914.357C564.018 914.997 567.5 919 567.5 919C567.345 919.654 569.95 921.508 569.95 921.508C573.232 923.904 572.398 926.24 570.684 928.667C570.02 929.03 569.996 929.005 569.996 929.005C569 929.5 566.005 931.996 566.005 931.996C559.942 934.344 546.849 938.661 540.754 940.978C538.565 940.846 537.197 940.9 535.829 940.954C532.306 944.169 529.247 943.363 526.12 941.809C525.243 940.979 524.514 940.952 523.785 940.926C520.082 940.477 517.098 940.153 514.114 939.828C513.543 938.969 513.107 938.941 512.672 938.914C505.71 938.826 499.379 939.123 493.078 938.815C487.938 938.564 482.776 936.784 477.725 937.134C470.851 937.611 464.082 939.52 457.249 940.702C455.465 941.011 453.609 940.901 451.786 940.983C450.207 940.843 449.484 940.895 448.761 940.947H448.761C446.844 941.633 445.637 942.872 444.467 942.837C439.018 942.675 433.58 942.161 428.139 941.773C427.555 940.963 427.129 940.935 426.704 940.907C425.145 940.36 424.207 939.973 423.268 939.585C422.45 938.476 421.836 938 421.222 937.525C420.723 936.81 420.422 936.662 420.12 936.513C419.681 935.835 419.407 935.661 419.132 935.486C417.686 932.234 416.35 929.474 415.014 926.714C414.369 918 414.112 907.837 414.369 902.462C415.033 900.955 415.049 899.899 415.066 898.843C415.128 895.32 415.07 892.58 415.011 889.839C415.145 887.888 415.095 886.835 415.044 885.781C414.332 882.278 413.645 879.567 412.958 876.856L412.957 876.855C412.994 876 413.001 876 413.001 876C411.064 869.961 409.129 863.912 407.196 857.863C406.855 856.793 406.521 855.721 406.184 854.65C406.322 853.468 406.25 853.049 406.178 852.63C405.135 849.564 404.019 847.176 403.125 844.707C401.336 839.766 399.668 834.782 397.95 829.816C397.98 829.007 397.995 828.997 397.995 828.997C390.887 814.782 385.481 800.058 384.941 783.924C384.998 783.007 385 783 385 783C381.693 778.621 382.742 774.036 384.352 769.424C385.003 768.532 385.014 768.102 385.025 767.671C386.289 756.049 387.542 745.072 388.58 734.075C389.666 722.572 391.094 711.12 378.829 703.536C373.372 700.161 368.93 695.168 363.901 691.063C362.877 690.227 361.289 690.083 360.299 689.738C360.299 688.309 361.012 685.919 360.186 685.121C353.503 678.662 346.583 672.439 339.544 666.367C338.975 665.876 336.541 666.655 335.762 667.539C334.904 668.512 334.959 670.289 334.615 671.715C333.851 672.442 333.824 672.88 333.796 673.318C332.126 683.238 330.624 692.52 329.132 701.804C328.412 706.278 327.658 710.748 327.01 715.233C325.792 723.655 324.093 731.959 319.823 739.428C312.5 747.5 292.823 761.717 283.891 768.317C277.052 773.371 270.461 778.761 263.76 784.002C263.018 784.036 261 786 261 786C260.284 786.697 257.42 789.188 256.67 789.861C251.22 794.228 246.408 798.459 241.596 802.69L241.594 802.692C240.951 803.489 230.767 811.604 230.195 812.426C222.744 816.833 215.529 821.854 208.218 826.732C201.405 831.278 194.623 835.893 187.59 840.078C177.734 845.943 174.751 856.607 180.02 866.9C185.501 877.608 190.556 888.535 195.797 899.366C195.73 900.529 195.803 900.947 195.875 901.364C197.367 904.068 198.704 906.151 200.04 908.234C208.198 916.953 218.35 920.033 229.372 921.43C233.441 921.946 236.422 924.88 237.866 928.878C238.161 929.694 237.985 930.984 237.511 931.727C231.703 940.851 221.164 943.298 210.898 939.565C207.038 938.162 201.925 939.839 197.456 940.563C190.566 941.679 183.922 941.934 177.806 937.808C165.747 929.672 157.165 918.228 148.058 907.187C140.65 898.205 132.252 890.327 121.685 884.631C106.664 876.535 98.6408 864.822 108.99 845.728C113.309 837.759 119.707 831.93 126.945 827.067C140.32 818.08 150.757 806.18 160.683 793.826C165.097 788.331 168.288 781.853 172.034 775.821C175.284 768.135 178.373 761.162 181.588 754.248C182.264 752.795 183.402 751.556 184.328 750.219C190.683 744.045 195.622 736.979 202.31 732.558C214.8 724.301 228.29 717.551 241.396 710.233C246.636 707.306 248.448 701.92 246.998 696.228C244.687 687.152 243.035 677.909 241.044 668.749C239.832 663.174 238.475 657.631 237.242 652.061C232.717 631.634 231.353 610.927 232.182 590.081C232.457 583.164 229.941 578.003 225.096 573.245C221.318 569.536 218.389 564.962 215.083 560.773C214.294 558.932 213.621 557.831 212.948 556.731L212.948 556.73C212.949 556.028 208.5 549 208.5 549C207.412 547.149 205.279 540.357 204.333 538.411C202.895 528.752 201.049 519.384 203.225 509.257C206.181 495.504 213.858 483.665 217.212 470.341C219.232 462.317 219.059 453.596 218.891 445.192L218.885 444.845C218.599 430.467 217.615 416.1 216.773 401.737C216.411 395.551 214.612 389.258 215.342 383.241C216.55 373.293 218.2 363.135 221.611 353.776C227.278 338.226 234.642 323.302 241.003 307.995C246.243 295.382 251.382 282.708 255.972 269.849C259.533 259.87 262.046 249.521 265.296 239.423C266.627 235.284 268.669 231.374 270.387 227.36C271 226.991 271.001 227 271.001 227C271.542 220.027 276.053 214.974 279.528 209.418C280.551 208.092 280.994 207.155 281.437 206.219C282.232 205.79 282.388 205.497 282.543 205.204C288.216 199.575 293.155 193.843 298.651 188.707C304.513 183.228 310.832 178.226 317.078 173.172C324.88 166.858 333.082 161.011 340.592 154.376C345.692 149.87 350.947 144.958 354.287 139.164C360.9 127.692 365.832 115.259 372.274 103.676C375.296 98.2438 380.208 93.8631 384.264 89.0056C390.4 84.6776 395.811 80.4088 401.221 76.1401C404.11 74.6831 406.139 73.0529 408.447 72.0977C424.122 65.6108 439.873 65.2285 455.635 71.8888C456.946 72.4429 458.305 72.8837 459.642 73.3771C469.47 76.7257 477.697 81.4732 484.08 88.8947C488.673 94.2346 492.425 100.311 497.139 105.529C500.39 109.128 504.939 111.53 508.367 115.002C512.052 118.734 511.762 125.484 508.004 128.749C499.228 136.374 502.514 142.09 509.822 147.053C510.527 148.267 514.893 154.522 515.5 155C515.603 155.66 519.998 161.999 519.998 161.999C520.665 162.638 521.362 163.234 522.059 163.829L522.061 163.831C522.404 164.335 522.557 164.44 522.557 164.44C524.029 166.453 526.411 168.224 526.583 170.187C527.117 176.28 527.806 182.659 526.557 188.526C525.254 194.646 524.785 201.083 521.021 206.794L520.964 206.88C515.131 215.728 509.457 224.335 498.302 226.999C495.163 227.749 491.989 228.351 488.831 229.021C487.52 228.869 487.102 228.906 486.683 228.943C473.586 230.828 462.467 226.881 451.768 221.046C450.934 220.591 449.91 219.931 449.1 220.075C443.841 221.005 438.155 221.181 433.5 223.44C427.946 226.134 425.828 231.918 425.999 238.219C425.85 239.485 425.898 239.913 425.946 240.34C426.646 243.064 427.339 245.141 428.031 247.217C427.977 248.02 428 248 428 248C430.008 253.563 432.192 259.054 434.037 264.656C439.031 279.827 439.173 295.733 440.749 311.406C441.048 314.387 440.04 317.5 439.634 320.551C438.968 321.174 439 322 438.936 323.52C439.697 331.675 434.879 338.868 430.542 344.84C429.997 344.995 430 345 430 345C429.533 346.859 429.07 348.719 428.608 350.579C427.998 350.998 428 351 428 351C426.927 357.54 425.857 364.08 424.787 370.621L424.751 370.839C423.923 371.196 423.918 371.381 423.913 371.566C424.171 372.249 424.406 372.377 424.642 372.505L424.348 372.812C423.927 372.871 423.968 372.941 423.968 372.941C423.194 376.916 423.22 381.199 421.652 384.786C418.741 391.444 421.45 395.946 425.921 400.25C426.019 400.99 426 401.002 426 401.002C426.656 401.42 427.303 401.86 427.95 402.299L427.951 402.3C432.22 407.011 436.686 410.781 440.535 415.1C448.823 424.403 456.579 434.185 464.951 443.409C475.071 454.558 485.853 465.111 495.867 476.351C502.294 483.564 507.869 491.538 513.768 499.215C514.113 499.665 513.943 500.51 514.013 501.172C514.075 501.955 514.01 501.928 514.01 501.928C514.717 502.361 515.36 502.823 516.002 503.285C516.018 503.992 515.999 503.999 515.999 503.999C518.226 506.789 520.443 509.598 522.66 512.408C522.664 513.506 522.765 513.926 522.866 514.346L522.866 514.346C524.981 517.752 526.957 520.516 528.933 523.28C528.818 524.032 528.981 524.49 528.981 524.49C529.664 525.749 530.325 526.524 530.986 527.298C531.001 528.003 531 528 531 528C533.969 532.805 536.987 537.584 539.884 542.436C540.767 543.916 541.318 545.595 542.021 547.182C542.405 548.128 542.678 548.313 542.951 548.499C550.977 566.217 552.115 583.924 546.676 602.085C546.361 603.137 545.667 604.075 545.149 605.066C544.53 605.406 544.457 605.45 544.457 605.45C542.245 611.734 538.413 616.287 531.801 618.022C531.017 618.028 531.003 617.997 531.003 617.997C527.951 621.598 522.906 621.945 520.084 618.785C518.65 617.179 517.241 615.646 515.794 614.052C515.478 613.536 504.713 609.897 504.546 609.865C503.128 609.713 502.206 609.68 501.284 609.647C499.359 607.532 497.772 606.042 495.605 604.008L495.604 604.008C503.389 602.159 509.746 601.093 515.794 599.097C522.949 596.735 523.856 590.206 523.054 584.742C521.746 575.828 520.229 566.966 516.021 558.838C514.825 557.445 513.778 556.625 512.59 556.245C507.301 554.554 503.997 558.603 504.83 565.195C505.426 569.913 505.717 574.699 505.676 579.451C505.661 581.194 504.719 583.74 503.419 584.414C502.294 584.997 499.572 583.937 498.406 582.761C492.917 577.226 488.809 570.843 488.049 562.795C488.103 561.956 488.025 561.946 488.025 561.946C487.927 561.653 487.791 561.429 487.656 561.205C488.057 560.929 488.062 560.741 488.067 560.554C487.729 559.664 487.065 559.336 487.066 559.009C487.084 550.754 487.173 542.5 487.249 534.245C488.06 534.01 488.064 533.517 488.064 533.517C487.809 532.715 487.63 532.399 487.451 532.083C488.022 530.91 488.054 529.847 488.087 528.784C487.393 526.587 486.703 525.189 486.014 523.791C475.399 513.106 461.8 508.435 449.351 501.754C442.898 498.29 436.586 494.518 430.451 490.517C421.904 484.944 413.518 479.115 405.193 473.213C401.742 470.766 398.626 467.847 394.36 464.317C392.385 468.793 390.597 472.306 389.261 475.984C386.272 484.211 383.859 492.663 380.55 500.753C377.56 508.062 373.243 514.841 370.439 522.206C369.388 524.967 369.838 529.515 371.521 531.889C378.386 541.57 386.047 550.684 393.302 560.093C396.335 564.027 399.086 568.178 401.965 572.23C402.013 572.993 402 573 402 573C404.244 575.767 406.48 578.545 408.716 581.324C408.703 582.211 408.792 582.398 408.881 582.585C412.205 587.869 415.715 592.386 418.666 597.242C421.387 601.72 423.508 606.562 425.894 611.243C425.824 612.188 425.889 612.361 425.954 612.534C428.541 617.458 431.349 621.708 433.631 626.224C438.674 636.199 443.547 646.264 448.31 656.376C452.254 664.751 456.902 672.969 459.445 681.775C461.528 688.989 460.55 696.92 460.376 704.633C460.064 718.355 461.659 732.121 462.487 745.867C462.824 751.453 463.394 757.029 463.592 762.619C464.072 776.16 464.394 789.706 464.78 803.25C465.23 807.199 465.554 810.331 465.878 813.462C465.393 814.615 465.378 814.924 465.394 815.234C465.578 817.604 465.712 819.515 465.847 821.425L465.847 821.436C465.354 822.609 465.341 822.92 465.349 823.232C465.455 830.945 465.546 838.193 465.637 845.439L465.637 845.508C464.865 852.602 464.327 859.281 464.894 865.864C465.561 873.621 469.839 879.545 476.836 883.083C487.763 888.608 498.812 893.89 509.81 899.275C510.033 899.989 510.524 900.015 510.524 900.015C515.926 902.257 520.771 904.605 525.826 906.345C529.847 907.73 534.107 909.091 538.29 909.185L539.053 909.202C546.377 909.364 553.602 909.523 560.476 912.474C561.913 913.458 562.835 913.908 563.758 914.357Z" fill="black"/>
</svg>
