<svg width="681" height="1211" viewBox="0 0 681 1211" fill="none" xmlns="http://www.w3.org/2000/svg">
<path d="M476.082 1036.54C478.669 1044.49 482.365 1051.86 490.067 1056.28C504.687 1063.91 519.73 1067.28 534.756 1071.24C550.257 1075.33 564.697 1070.24 579.606 1069.73L579.733 1069.72C584.39 1069.56 588.373 1069.43 590.556 1074.22C593.332 1080.31 592.054 1084.44 587.861 1088.63C571.957 1104.51 552.008 1108.87 530.612 1109.37C519.914 1109.62 509.391 1111.64 499.268 1114.59C493.713 1116.21 488.286 1116.98 480.602 1120.53C473.508 1123.8 456.195 1128.57 451.562 1127.09C448.158 1126.01 445.806 1123.48 444.509 1120.32C441.742 1113.58 438.663 1106.56 439.35 1099.29C441.385 1077.78 434.144 1058.94 425.144 1040.01C415.082 1018.85 403.312 998.675 392.313 978.053C384.068 962.594 377.24 946.464 374.454 929.075C372.208 915.055 372.274 900.812 372.798 886.615C373.016 880.71 373.071 874.792 373.509 868.903C375.057 848.119 368.077 830.723 354.712 814.792C342.091 799.747 331.125 783.315 319.38 767.53C317.786 765.388 316.48 762.424 313.192 762.75C310.032 763.064 309.74 766.242 308.747 768.468C299.804 788.527 290.555 808.463 282.205 828.768C276.875 841.731 272.177 854.875 262.075 865.083C254.733 872.502 246.76 879.232 238.556 885.671C218.133 901.699 201.678 921.642 184.066 940.468C168.428 957.185 155.574 976.178 140.259 993.13C133.371 1000.76 127.668 1009.13 122.08 1017.75C111.858 1033.5 112.697 1048.95 121.023 1064.9C125.115 1072.74 129.067 1080.65 132.835 1088.65C136.412 1096.25 142.46 1100.86 149.948 1104.04C153.569 1105.57 157.123 1107.28 160.642 1109.04C172.974 1115.21 168.477 1123.49 149.948 1121.71C139.865 1120.75 120.76 1116.98 111.961 1111.32C101.238 1104.42 91.213 1096.39 84.0924 1085.33C80.4982 1079.75 74.8716 1076.99 68.3052 1076C53.6774 1073.81 43.4364 1066.78 40.8944 1051.13C39.7396 1044.02 41.9856 1037.93 46.045 1032.41C48.1279 1029.58 50.5734 1026.87 53.3303 1024.71C70.9607 1010.92 82.7729 992.93 92.6021 973.065C104.984 948.041 116.554 922.652 128.38 897.376C139.597 873.404 157.689 855.77 179.789 841.863L180.288 841.549C183.117 839.769 185.945 837.99 188.744 836.165C198.409 829.867 203.055 820.834 205.252 809.529C209.497 787.689 210.867 765.514 213.771 743.532C215.828 727.962 217.716 712.38 220.693 696.968C222.105 689.66 224.419 682.517 225.014 675.051C226.038 662.2 220.71 650.735 216.399 639.233C207.055 614.299 206.669 589.797 217.796 565.377C221.302 557.682 224.469 549.813 228.375 542.327C232.942 533.573 235.439 524.331 235.479 514.609C235.553 496.498 233.617 478.53 230.371 460.706C229.985 458.588 229.861 456.412 229.764 454.257C229.663 451.986 229.357 449.875 226.954 448.878C224.609 447.905 222.766 449.096 220.995 450.427C212.294 456.967 208.935 466.209 208.101 476.573C207.659 482.064 207.311 487.553 206.784 493.044C205.147 510.101 199.836 526.321 196.012 542.877C193.63 553.191 191.32 563.527 188.619 573.759C186.529 581.676 184.487 589.583 183.152 597.669C181.783 605.951 179.001 613.99 179.308 622.558C179.924 639.8 177.159 656.723 173.023 673.316C170.625 682.932 166.562 692.174 162.766 701.386C159.301 709.796 144.546 714.439 137.232 711.007C132.501 708.788 127.251 704.812 124.324 699.629C121.618 694.839 118.52 690.529 114.936 686.314C110.485 681.08 112.262 674.46 113.963 668.417C117.828 654.686 126.239 643.427 134.361 632.085C140.451 623.581 143.449 613.898 143.25 603.885C142.657 574.097 145.81 544.467 146.212 514.715C146.466 495.886 151.237 477.348 157.001 459.285C162.952 440.638 169.082 422.054 174.538 403.243C177.693 392.364 181.658 381.614 186.376 371.318C194.443 353.714 199.491 335.367 203.18 316.433C206.296 300.439 210.631 284.725 220.223 271.021C225.478 263.515 232.093 257.39 238.763 251.256C248.46 242.336 258.321 233.627 263.755 221.062C269.257 208.342 268.302 195.783 264.041 183.108C258.984 168.067 252.798 153.377 251.455 137.269C250.115 121.188 253.156 106.331 262.474 93.0011C270.717 81.2103 283.027 76.5849 296.418 73.69C305.32 71.7655 314.245 70.949 323.324 71.38C337.593 72.0573 351.356 75.1409 364.194 81.3046C372.62 85.3501 376.986 93.2935 379.967 101.835C380.567 103.555 380.663 106.173 379.756 107.58C374.514 115.711 377.033 123.845 379.166 132.036C380.729 138.036 381.231 143.999 379.293 150.056C378.242 153.34 380.09 156.21 381.339 159.061C383.468 163.917 385.777 168.695 387.979 173.519C389.449 176.74 388.806 179.253 385.436 180.821C381.563 182.625 380.304 185.707 380.321 189.914C380.363 200.32 378.517 210.536 376.365 220.675C374.997 227.125 369.932 228.824 364.283 228.826C358.195 228.828 352.098 228.322 346.019 227.851C340.027 227.387 336.828 230.251 334.39 235.592C328.426 248.66 330.112 260.497 337.904 272.311C348.187 287.899 358.288 303.653 365.626 320.938C373.654 339.847 379.166 359.422 379.891 380.058C380.082 385.512 379.36 391.116 378.232 396.477C374.284 415.249 377.607 433.646 380.706 452.042C381.472 456.59 384.598 460.227 387.954 463.314C412.44 485.831 436.615 508.71 461.707 530.533C472.015 539.499 484.335 546.154 495.766 553.82C496.9 554.58 498.194 555.533 499.457 555.602C510.65 556.21 515.668 564.16 520.03 572.797C523.302 579.275 526.168 585.958 529.442 592.435C532.57 598.623 531.581 604.127 527.614 609.54C521.181 618.318 508.267 622.553 498.039 619.168C494.79 618.093 493.307 615.911 493.016 612.635C492.65 608.514 491.081 604.925 487.533 602.62C477.271 595.953 468.896 587.186 462.743 576.896C454.598 563.276 442.692 555.665 428.502 549.737C412.566 543.079 397.259 534.911 381.707 527.34C375.282 524.212 373.013 525.071 370.845 531.67C368.998 537.29 368.714 543.25 367.786 548.992C365.814 561.19 363.622 573.351 361.518 585.525C359.719 595.933 360.382 605.648 366.25 615.021C383.298 642.257 395.805 671.721 406.745 701.799C410.937 713.324 412.78 725.683 416.194 737.518C420.69 753.104 425.53 768.576 431.594 783.675C439.51 803.387 446.841 823.493 444.241 845.242C442.868 856.727 442.53 867.987 444.662 879.291C447.278 893.166 450.19 906.986 452.853 920.853C455.509 934.686 457.983 948.553 460.598 962.393C463.072 975.488 465.583 988.577 468.158 1001.65C470.464 1013.36 472.383 1025.17 476.082 1036.54Z" fill="black"/>
</svg>
