<svg width="509" height="1024" viewBox="0 0 509 1024" fill="none" xmlns="http://www.w3.org/2000/svg">
<path d="M165.388 646.357C168.772 645.042 170.815 647.765 172.831 649.982C196.139 675.617 218.379 702.172 240.674 728.68C252.553 740.323 257.221 751.841 249.97 767.811C241.971 785.428 238.412 805.14 224.27 819.696C210.849 833.511 197.505 847.406 183.86 860.998C162.905 881.873 142.259 903.07 120.062 922.669C113.092 928.823 112.569 936.512 118.454 944.02C122.84 949.613 127.456 955.038 132.184 960.348C138.481 967.42 141.812 975.937 144.265 984.818C147.064 994.95 139.115 1013.39 129.95 1018.51C120.965 1023.53 112.276 1020.29 104.405 1016.16C89.6495 1008.41 78.0656 996.34 65.6065 985.54C45.6824 968.269 26.1109 950.605 7.29699 932.105C-2.03233 922.931 -2.23622 921.112 5.6569 910.306C18.6891 892.465 34.1446 876.757 49.1355 860.674C72.4413 835.669 93.9937 809.148 116.748 783.674C121.173 778.721 125.244 773.375 130.136 768.934C138.245 761.573 141.784 751.959 144.289 741.933C151.615 712.619 155.039 682.544 161.126 652.981C161.719 650.106 162.698 647.403 165.388 646.357Z" fill="black"/>
<path d="M368.232 344.898C372.364 346.731 372.692 351.476 373.218 354.494C375.538 367.792 380.89 380.274 382.925 393.624C387.049 420.671 402.018 440.844 423.057 457.541C437.945 469.358 451.922 482.326 466.305 494.78C480.673 508.418 494.251 521.483 504.198 537.659C517.311 558.985 502.007 591.713 477.174 594.751C466.096 596.106 456.505 591.463 449.153 582.907C439.165 571.285 430.969 558.061 418.525 548.641C413.59 544.905 408.889 540.731 403.555 537.676C387.487 528.472 374.787 514.994 360.057 504.114C356.441 501.443 355.149 497.703 355.525 493.212C357.551 469.011 359.518 444.804 361.467 420.597C361.871 415.573 362.08 410.533 362.431 405.504C363.751 386.565 365.09 367.627 366.432 348.69C366.527 347.345 366.474 345.907 368.232 344.898Z" fill="black"/>
<path d="M40.2133 243.51C43.7524 222.814 61.4948 205.627 84.2925 207.435C93.6728 208.179 103.099 208.352 112.504 208.785C128.906 209.777 144.02 210.669 159.132 211.573C162.568 211.779 166.407 211.573 168.056 215.394C169.789 219.412 167.365 222.37 164.683 225.11C156.346 233.627 147.682 241.86 139.829 250.804C128.687 263.497 122.085 279.119 113.915 293.683C103.931 311.484 92.5445 328.389 81.8889 345.757C73.7486 359.026 65.4462 372.203 57.678 385.687C54.9923 390.349 53.1721 395.651 52.5181 401.152C50.0304 422.071 47.272 442.94 46.0264 464.017C44.6767 486.853 42.0578 509.615 39.9696 532.408C39.8445 533.772 39.6421 535.157 39.2532 536.466C37.6735 541.785 35.9923 541.8 31.7314 538.276C17.371 526.398 17.0209 510.622 19.1453 494.263C22.0141 472.172 22.6072 449.851 25.1872 427.817C27.7501 405.929 27.2944 383.874 30.7404 362.071C32.7739 349.205 32.5981 336.004 33.7768 322.986C35.8018 300.622 35.8662 278.102 39.2182 255.842C39.8309 251.773 39.521 247.559 40.2133 243.51Z" fill="black"/>
<path d="M235.067 115.84C241.358 111.441 250.585 112.713 255.511 118.657C262.43 127.006 261.082 137.267 251.917 146.02C242.297 150.274 234.497 147.31 229.987 138.569C225.901 130.648 228.125 120.693 235.067 115.84Z" fill="black"/>
<path d="M348.702 75.3578C352.655 73.136 355.656 76.2848 357.748 79.4852C363.846 88.8152 367.008 99.3494 369.894 109.978C370.649 117.027 371.179 122.96 371.373 128.903C371.469 131.82 370.513 134.66 366.896 134.645C363.697 134.632 362.807 132.053 362.587 129.381C361.272 113.357 355.563 98.7156 348.652 84.4259C347.208 81.4406 344.541 77.6964 348.702 75.3578Z" fill="black"/>
<path fill-rule="evenodd" clip-rule="evenodd" d="M227.382 10.2771C290.922 -17.3677 367.541 12.8089 395.63 76.2331C417.755 126.19 406.653 186.92 365.636 224.571C360.565 229.225 355.005 233.402 350.316 238.403C340.848 248.503 329.271 250.487 316.311 248.692C311.778 248.064 307.165 248.01 302.589 247.694C285.961 243.522 270.48 239.634 255.121 235.314C235.512 229.8 216.266 223.128 197.581 215.024C180.127 207.453 169.978 192.469 161.75 176.423C149.079 151.712 147.74 124.709 153.578 98.5991C162.829 57.2238 188.099 27.3684 227.382 10.2771ZM356.807 43.8847C343.817 42.8361 331.188 44.2638 319.075 49.2657C295.405 59.0403 277.713 76.1094 262.56 96.1119C259.322 100.387 256.248 101.902 250.922 100.158C239.14 96.3008 229.026 99.8958 221.326 109.161C212.523 119.753 210.949 131.716 216.658 144.466C221.395 155.047 229.183 161.507 241.048 161.463C248.855 161.434 253.877 164.937 257.992 171.164C275.012 196.924 299.16 212.328 328.917 219.493C342.732 222.819 354.933 220.52 364.564 209.436C368.312 205.123 371.605 200.414 375.381 195.469C380.849 187.181 385.384 179.011 387.585 169.717C392.152 150.423 394.336 131.125 391.656 111.171C388.622 88.5689 380.485 68.394 366.989 50.2259C364.475 46.8411 361.328 44.2497 356.807 43.8847Z" fill="black"/>
<path d="M206.174 237.35C199.325 234.772 192.328 229.617 183.489 235.216C169.306 244.2 156.376 253.96 148.412 269.198C145.014 275.7 141.425 282.123 137.57 288.364C119.255 318.017 101.316 347.92 82.2242 377.066C72.1298 392.476 65.7751 409.058 65.049 426.902C64.2832 445.719 60.2824 464.16 60.2284 482.988C60.2087 489.841 59.7988 496.823 58.4429 503.519C54.7975 521.519 55.705 539.965 52.4063 558.023C50.6065 567.875 50.5036 578.04 48.8245 588.019C46.0309 604.62 50.5314 618.928 64.2721 629.538C78.917 640.846 96.6825 638.118 108.019 623.591C112.877 617.365 113.423 609.992 115.162 603.034C116.792 596.514 119.091 596.461 124.02 599.461C129.803 602.981 132.17 601.439 132.538 594.561C132.945 586.945 131.715 579.6 130.064 572.152C127.084 558.704 130.439 545.515 131.974 532.084C134.831 507.08 139.987 482.333 140.952 457.118C141.502 442.769 146.66 430.481 156.416 419.942C176.72 398.008 196.917 375.975 217.114 353.942L218.382 352.559C221.635 349.009 225.489 346.7 229.851 349.54C234.349 352.468 233.2 357.199 231.502 361.368C228.858 367.863 224.184 373.012 219.451 377.998C201.911 396.471 183.387 414.027 167.574 434.103C163.472 439.31 160.805 444.814 161.055 451.695C161.818 472.637 157.265 493.21 156.369 514.075C156.039 521.771 156.47 529.722 154.592 537.344C150.026 555.875 154.656 573.797 158.592 591.597C162.344 608.561 172.803 622.138 183.576 635.309C211.321 669.232 241.522 701.117 267.699 736.334C277.114 749 288.841 760.394 294.595 775.236C301.562 793.211 302.487 812.747 305.712 831.646C308.941 850.572 312.523 869.439 315.03 888.511C317.527 907.51 321.911 926.253 324.973 945.187C328.102 964.543 330.554 984.019 334.785 1003.17L334.824 1003.35C336.621 1011.49 338.478 1019.9 347.382 1023.99C348.037 1024.38 445.871 1006.01 494.706 996.774C499.627 973.26 490.165 954.92 468.072 947.71C457.773 944.349 446.526 943.525 435.62 942.5C424.521 941.456 419.702 937.276 419.409 926.304C418.869 906.11 416.223 886.082 414.686 865.967C414.127 858.645 414.551 851.163 413.205 844.003C409.504 824.316 408.273 804.312 407.403 784.493C406.232 757.831 400.094 733.071 388.604 709.183C373.105 676.961 356.098 645.523 339.906 613.664C334.523 603.072 329.11 592.341 331.368 579.726C335.451 556.906 334.117 533.562 337.976 509.397C338.136 490.56 341.053 471.883 341.748 453.135C342.64 429.054 345.705 405.177 346.729 381.107C348.035 350.403 351.424 319.803 346.216 289.137C344.405 278.474 338.977 269.899 331.733 268.374C327.702 267.526 323.623 266.738 319.526 266.41C280.053 263.258 242.936 251.191 206.174 237.35Z" fill="black"/>
</svg>
