<svg width="864" height="832" viewBox="0 0 864 832" fill="none" xmlns="http://www.w3.org/2000/svg">
<path d="M572.285 278.636C572.075 273.7 574.931 271.113 579.18 269.522C582.295 268.356 585.374 267.093 588.461 265.852C592.695 264.149 596.738 264.355 601.018 266.153C609.388 269.67 617.094 274.847 626.124 276.688C632.417 277.971 638.642 280.734 645.21 279.238C663.777 275.01 678.865 266.865 682.173 245.664C683.525 237.004 684.034 228.609 679.574 220.539C673.755 210.009 666.107 200.829 658.695 191.463C653.734 185.195 653.98 181.532 659.689 175.952C666.047 169.738 666.131 161.515 658.959 156.108C652.272 151.065 647.816 144.323 643.038 137.85C632.629 123.749 620.374 113.559 602.088 110.617C586.114 108.047 571.844 110.636 558.149 118.401C549.23 123.459 542.368 131.037 534.937 137.917C528.083 144.263 520.484 149.284 511.527 152.532C499.414 156.924 486.689 158.13 474.203 159.985C460.017 162.092 447.044 166.927 434.14 172.593C421.935 177.951 410.816 185.033 400.221 193.047C388.852 201.646 377.163 209.836 366.007 218.701C350.152 231.3 335.01 244.813 318.927 257.102C293.939 276.196 270.312 296.76 248.423 319.308C234.593 333.553 224.405 350.467 213.49 366.924C203.434 382.085 197.62 397.749 197.737 416.161C197.836 431.695 202.671 444.392 214.17 454.635C217.437 457.546 220.004 460.848 221.311 465.098C223.005 470.609 224.708 476.122 226.619 481.56C232.872 499.346 241.856 516.005 248.153 533.788C251.216 542.437 249.589 546.804 240.809 549.827C219.659 557.11 203.594 571.102 189.644 588.032C178.769 601.229 168.112 614.642 154.384 625.161C147.553 630.395 142.659 637.409 137.911 644.442C136.304 646.823 134.564 649.536 135.574 652.809C138.318 661.696 141.28 670.36 148.569 676.926C152.264 680.255 155.726 683.826 159.645 686.946C167.372 693.098 173.913 700.278 178.528 709.168C182.869 717.53 188.913 724.09 198.51 726.662C201.69 727.514 204.155 727.533 205.456 724.113C206.118 722.372 207.227 720.985 208.966 720.996C215.539 721.037 222.259 719.284 228.616 722.445C235.905 726.071 242.925 724.493 249.558 720.807C253.717 718.495 253.918 714.495 250.38 711.343C247.857 709.095 244.807 707.838 241.47 707.157C233.655 705.562 226.781 702.422 221.494 696.03C213.234 686.044 204.576 676.388 196.23 666.472C191.856 661.275 192.329 658.112 197.74 654.159C213.854 642.385 231.376 632.842 248.338 622.418C266.6 611.196 284.696 599.729 301.733 586.71C308.405 581.612 313.762 575.154 316.384 566.953C320.469 554.177 322.107 540.92 323.612 527.658C323.877 525.326 323.595 522.868 326.046 521.511C328.77 520.003 330.572 522.21 332.197 523.585C338.667 529.058 344.931 534.775 351.273 540.399C356.854 545.349 357.5 551.218 356.394 558.486C355.055 567.287 352.435 575.881 352.322 584.924C352.175 596.747 352.182 608.487 355.335 620.011C357.301 627.197 357.902 634.728 359.749 641.863C363.555 656.573 363.706 671.617 365.303 686.522C365.903 692.124 365.737 697.868 365.337 703.506C364.523 714.976 374.008 723.479 384.349 723.104C398.498 722.592 412.68 723.029 426.838 722.667C437.101 722.404 447.319 723.522 456.988 726.217C473.285 730.76 487.77 724.721 502.741 720.743C503.198 720.621 503.604 720.25 503.995 719.945C506.025 718.365 506.545 716.71 504.735 714.461C500.067 708.667 494.901 704.052 486.69 704.95C478.294 705.867 470.012 704.691 462.142 701.981C450.116 697.84 438.587 692.434 427.156 686.835C420.849 683.746 418.698 678.75 418.514 672.003C418.156 658.839 421.873 645.947 420.822 632.767C420.797 632.442 420.858 632.094 420.95 631.778C424.434 619.815 422.482 607.36 424.203 595.148C425.579 585.378 426.267 575.316 427.567 565.477C429.415 551.482 429.268 537.522 428.444 523.599C428.023 516.484 426.3 509.249 423.317 502.507C418.185 490.908 410.43 480.946 403.41 470.546C394.391 457.183 385.158 443.941 372.358 433.717C370.841 432.506 369.428 430.892 368.591 429.163C367.295 426.484 368.712 423.801 371.418 424.319C380.144 425.988 386.807 419.677 394.926 418.855C398.39 418.504 402.165 418.236 405.631 417.138C416.706 413.633 427.253 408.826 437.736 403.885C439.485 403.061 441.106 402.097 442.733 403.689C444.185 405.11 445.107 406.816 444.75 409.065C442.773 421.508 440.541 433.978 437.656 446.16C435.261 456.275 438.04 465.236 439.574 474.498C441.373 485.364 445.143 495.895 447.124 506.741C449.169 517.934 452.548 528.758 455.006 539.825C457.294 550.131 459.857 560.379 462.441 570.617C464.205 577.607 466.582 584.46 468.011 591.511C469.528 598.994 471.827 606.371 465.611 613.655C460.208 619.986 457.583 628.056 458.302 636.771C458.575 640.086 458.829 643.408 458.909 646.731C459.068 653.315 456.041 655.604 449.854 653.683C447.262 652.879 445.21 653.676 443.803 655.874C442.555 657.824 441.651 659.994 440.398 661.939C438.761 664.48 439.26 666.68 441.134 668.744C442.927 670.718 444.952 672.375 447.35 673.644C454.751 677.561 462.862 678.269 470.924 678.425C478.896 678.58 486.127 675.712 490.947 669.102C499.475 657.406 505.86 644.367 506.311 629.841C506.775 614.898 509.937 600.116 508.691 585.107C508.568 583.626 508.651 582.089 508.898 580.621C511.742 563.678 511.197 546.484 512.464 529.427C513.634 513.684 512.686 497.788 512.776 481.961C512.815 475.266 514.798 472.109 519.643 470.723C524.06 477.558 525.685 485.656 528.662 493.125C538.179 516.999 551.681 538.526 566.25 559.476C575.241 572.404 585.054 584.78 592.256 598.889C596.114 606.448 598.653 614.027 594.946 622.548C592.721 627.662 591.772 633.124 591.214 638.772C590.245 648.598 594.087 657.247 596.642 666.246C598.337 672.217 594.818 676.074 588.657 674.913C586.539 674.513 584.599 673.839 582.774 672.485C579.178 669.82 577.039 670.832 576.436 675.19C574.608 688.416 584.681 697.103 595.97 699.331C603.841 700.884 612.238 699.688 620.395 699.908C625.153 700.036 628.387 697.961 630.322 693.792C635.259 683.155 640.224 672.519 639.769 660.346C639.476 652.533 640.63 644.608 639.044 636.922C637.081 627.408 635.757 617.784 633.885 608.254C632.005 598.682 629.829 589.177 627.882 579.624C626.202 571.378 624.455 563.143 622.587 554.938C620.988 547.91 619.181 540.929 617.453 533.93C615.55 526.22 613.041 518.6 611.899 510.78C610.889 503.863 608.787 497.265 606.868 490.702C603.116 477.868 597.007 465.852 591.273 453.794C586.367 443.476 582.43 432.94 581.936 421.584C581.31 407.219 581.629 392.899 577.899 378.74C575.85 370.962 574.332 363.041 571.7 355.396C568.416 345.855 566.424 336.081 569.309 326.112C573.753 310.752 575.513 295.291 572.285 278.636Z" fill="black"/>
</svg>
