<svg width="716" height="1118" viewBox="0 0 716 1118" fill="none" xmlns="http://www.w3.org/2000/svg">
<path d="M188.331 949.417C187.854 951.363 188.319 954.814 188.331 956.215C187.964 956.481 187.947 957.165 187.941 957.408L187.939 957.453C188.485 958.524 189.408 958.941 189.568 959.557C190.479 963.071 191.209 966.633 192.001 970.178C192.652 972.436 193.303 973.874 193.953 975.312C197.517 984.45 201.714 992.667 204.539 1001.33C207.551 1010.57 214.354 1014.93 222.374 1018.68C227.153 1020.92 231.953 1023.46 236.007 1026.77C237.992 1028.38 239.803 1032.7 238.978 1034.65C237.955 1037.06 234.311 1039.23 231.457 1039.8C225.443 1041.02 219.118 1042.04 213.081 1041.47C203.521 1040.56 193.641 1039.2 185.672 1033.26C181.767 1030.36 178.803 1025.95 176.016 1021.82L175.974 1021.75C168.858 1011.19 162.018 1000.4 151.62 992.658C144.682 987.494 137.504 982.635 130.269 977.89C121.24 971.969 115.859 964.291 117.104 953.001C117.902 945.763 121.323 939.922 126.65 935.144C132.757 929.666 139.092 924.436 145.072 918.826C155.163 909.359 162.287 897.707 168.092 885.329C176.408 867.6 183.981 849.522 192.323 831.807C201.859 811.557 216.637 795.937 235.556 783.967C243.5 778.941 250.791 772.882 258.38 767.293C262.832 758.407 264.704 749.283 265.146 739.828C265.833 725.161 266.003 710.443 267.414 695.845C269.072 678.688 271.795 661.634 274.118 644.544C274.721 640.106 275.475 635.684 276.328 631.287C276.628 629.739 277.427 628.288 277.999 626.792C277.341 624.61 276.692 623.181 276.044 621.752C275.936 621.067 272 616 272 616C269.679 613.57 267.84 611.406 265.5 609C265.456 608.27 265.002 608.002 265.002 608.002C263.655 606.614 262.816 605.433 261.5 604C261.473 603.25 261.001 603 261.001 603C260.333 601.908 260.669 601.596 260 600.5C259.969 599.803 259.002 599.002 259.002 599.002C256.681 595.016 254.262 591.059 252.142 586.948C251.148 585.021 250.73 582.798 250.052 580.71C250.152 579.515 250.096 579.099 250.039 578.683C249.321 575.968 248.651 573.885 247.982 571.802C247.489 567.249 246.058 563.481 246.314 559.831C247.514 542.765 250.796 526.184 259.831 511.259C260.634 509.931 261.527 508.658 262.378 507.359C263.441 505.775 263.909 504.544 264.377 503.313C265.065 503.083 264.994 503.034 264.994 503.034C265.493 502.082 265.908 501.112 266.323 500.142C267.034 500.015 267.131 499.563 267.131 499.563C268.249 494.046 270.172 488.949 270.022 483.913C269.801 476.482 268.104 469.095 267.035 461.689C265.83 454.961 262.424 440.897 261.036 434.887C257.55 427.623 258.503 421.047 260.379 414.443C260.895 413.399 260.795 412.854 260.696 412.31C261.412 409.067 261.823 406.116 262.233 403.166C262.991 401.818 263.006 400.715 263.022 399.613C263.527 394.159 263.921 389.272 264.315 384.386C264.883 375.178 266.092 360.959 266.539 352.408C267.111 350.948 267.117 349.903 267.122 348.857C267.177 339.673 267.106 331.262 267.036 322.851L267.036 322.845C267.217 320.248 267.176 318.575 267.135 316.902C266.201 295.909 267.171 275.865 272.391 256.297C274.202 249.506 277.659 243.154 280.364 236.602C282 234.5 283.5 232.5 283.5 232.5C288.581 226.197 295.076 216.405 300.166 210.169C305.809 203.256 312.136 196.839 317.221 189.548C324.077 179.718 324.726 168.271 324.11 156.573C323.428 143.647 321.689 130.423 323.595 117.809C325.633 104.312 334.873 93.6603 345.727 85.3127C354.481 78.5801 364.268 73.5741 375.45 72.0194C384.95 70.6987 394.452 69.3833 403.976 68.2607C405.446 68.0874 407.04 68.9618 408.577 69.3517C409.45 70.0261 409.879 70.0412 410.308 70.0562C423.054 70.2944 433.547 74.6409 442.746 82.3619C442.965 83.0317 442.998 82.9989 442.998 82.9989C444.65 85.1165 446.328 87.198 448.006 89.2794C452.686 95.3108 457.713 100.351 462.077 105.911C466.132 111.078 469.604 116.773 465.805 123.766C464.687 125.33 464.693 127.066 463.83 127.881C459.494 131.975 461.853 135.269 464.776 138.584C468.505 142.812 472.259 147.018 476.002 151.234C477.348 154.835 480.479 159.015 479.542 160.358C475.011 166.855 477.127 174.07 475.849 180.834C473.498 193.279 469.771 205.257 458.427 212.924C457.523 213.535 456.362 213.764 455.32 214.171C454.658 214.436 454.544 214.559 454.544 214.559C450.788 215.727 447.102 217.906 443.575 217.674C434.637 217.087 425.769 215.429 416.882 214.142C416.508 214.088 416.219 213.451 415.891 213.085C415.609 212.521 415.551 212.457 415.551 212.457C414.32 212.383 413.174 212.317 412.029 212.25L412.026 212.25C411.327 212.344 411.227 212.005 411.227 212.005C404.945 218.993 407.151 227.252 407.015 235.069C415.173 252.158 423.921 268.053 431.376 284.532C439.616 302.746 444.848 321.839 443.909 342.232C443.231 356.956 443.262 371.712 442.671 386.442C442.361 394.148 441.652 401.863 440.646 409.511C439.553 417.822 442.647 424.722 446.825 431.449C447.979 433.307 448.87 435.328 449.882 437.274C449.906 438.039 449.981 438.046 449.981 438.046C454.155 445.826 458.512 453.458 462.526 461.267C467.462 470.865 472.071 480.63 476.893 490.287C485.917 508.36 494.982 526.414 504.06 544.461C505.235 546.797 506.585 549.046 507.855 551.336C510.8 556.871 513.651 561.634 516.501 566.396C516.636 567.506 516.749 567.926 516.862 568.346L516.862 568.347C518.906 571.778 520.876 574.546 522.846 577.314L522.847 577.315C522.892 578.055 522.974 578.047 522.974 578.047C525.93 585.235 529.255 592.235 531.85 599.495C536.097 611.374 533.492 623.757 533.776 635.924C533.805 637.129 533.038 638.351 532.641 639.565C531.977 640.185 531.969 640.357 531.962 640.528C532.18 641.197 532.389 641.35 532.598 641.503L532.342 641.812C531.964 641.948 532.007 641.982 532.007 641.982C533.323 656.229 527.871 656.5 518.007 660.528C515.915 661.382 512.841 660.453 510.402 659.716L510.376 659.708C504.542 657.945 498.82 655.808 493.054 653.822C492.93 653.047 492.986 652.998 492.986 652.998C487.686 653.736 484.429 650.288 480.994 647.203C480.615 646.647 480.46 646.556 480.46 646.556C478.664 643.331 476.424 640.406 475.482 637.111C474.828 634.825 475.961 632.029 476.479 628.056C479.626 629.883 482.282 631.7 485.167 633.013C487.451 634.053 490.154 635.259 492.401 634.862C493.64 634.643 494.483 631.327 495.186 629.296C495.542 628.267 495.189 626.993 495.157 625.83C491.358 617.391 486.925 610.045 483.664 602.211C481.905 597.988 481.208 592.834 481.67 588.265C483.132 573.81 476.484 563.313 466.68 553.938C463.327 550.731 460.326 547.157 457.164 543.751C455.703 541.944 454.423 540.832 453.144 539.72L453.143 539.72C451.945 537.983 450.96 536.893 449.974 535.804C449.264 534.646 448.627 534.191 447.991 533.737L447.99 533.737C446.662 531.601 445.385 530.143 444.108 528.684C444.013 527.992 444 528 444 528C441.028 524.56 438.047 521.133 435.065 517.706C435.037 516.978 434.995 516.993 434.995 516.993C433.252 515.033 422.319 511.531 420.546 509.604C419.961 509.968 419.917 510.447 419.917 510.447C419.471 512.254 419.153 513.599 418.836 514.944L418.833 514.954C418.022 515.503 417.985 515.919 417.948 516.336C416.128 527.693 414.999 538.564 412.583 549.141C410.213 559.52 406.478 569.583 403.499 579.83C403.078 581.279 403.398 583.012 403.649 584.57C403.954 586.467 404.548 588.317 405.017 590.188C411.259 604.167 417.79 617.206 423.781 630.489C427.186 638.038 430.273 645.828 432.496 653.791C435.983 666.282 438.687 678.996 441.593 691.644C443.722 700.91 445.595 710.235 447.671 719.514L448.066 721.28C450.143 730.566 452.22 739.855 454.501 749.093C456.334 756.521 459.304 763.753 460.349 771.27C461.638 780.543 461.296 789.843 458.16 799.106C454.497 809.929 453.652 821.202 455.174 832.767C456.62 843.753 457.325 854.898 457.454 865.983C457.651 882.944 456.96 899.914 456.858 916.881C456.762 932.764 456.522 948.665 457.127 964.528C457.661 978.5 465.062 988.434 477.556 994.698C487.77 999.819 497.924 1005.06 508.026 1010.4C519.055 1016.23 531.12 1018.52 543.09 1021.31C548.792 1022.64 554.311 1024.87 559.768 1027.07L560.29 1027.28C561.784 1027.89 562.72 1029.87 563.912 1031.22C564.199 1033.21 564.398 1034.45 564.598 1035.7C564.001 1036.5 563.983 1036.91 563.965 1037.31C563.446 1038.59 563.075 1039.28 562.705 1039.96L562.705 1039.96C561.986 1039.99 562 1040 562 1040C560.231 1040.96 558.572 1042.3 556.685 1042.85C551.412 1044.39 546.045 1045.61 540.715 1046.95C539.476 1046.8 539.064 1046.85 538.653 1046.9C537.817 1047.54 537.663 1048.6 537.378 1048.64C529.287 1049.66 521.178 1051.37 513.081 1051.32C502.765 1051.27 492.468 1049.61 482.142 1048.96C473.158 1048.39 464.126 1047.74 455.152 1048.09C445.526 1048.45 435.944 1050.71 426.342 1050.72C417.125 1050.72 411.936 1046.42 408.697 1037.55C406.318 1031.03 408.135 1025.29 408.563 1019.18C409.21 1009.96 410.584 1000.67 410.035 991.515C409.506 982.695 406.902 974.003 405.273 965.242C405.003 963.788 405.053 962.275 404.955 960.789C402.154 950.328 399.303 940.668 396.159 931.105C393.315 922.457 390.175 913.906 387.124 905.326C383.71 895.726 378.915 886.604 378.947 875.931C378.968 868.606 377.182 861.254 377.437 853.957C377.707 846.191 379.471 838.481 380.51 830.737C382.196 818.175 384.343 805.646 385.324 793.028C386.232 781.339 380.854 771.466 373.772 762.518C370.637 758.557 367.442 754.644 364.275 750.709C363.561 750.874 348.994 747.055 348.994 747.055C347.638 751.689 346.484 756.46 344.879 761.075C342.27 768.576 339.365 775.973 336.585 783.415C335.982 783.757 335.601 784.01 335.601 784.01C334.81 785.138 334.475 786.22 334.141 787.302C332.666 790.347 332.029 793.326 330.203 795.035C320.306 804.304 309.969 813.103 300.076 822.377C293.584 828.463 287.41 834.915 281.413 841.494C272.651 851.107 264.217 861.018 255.561 870.728C251.186 875.635 246.63 880.38 242.156 885.198C233.908 893.96 226.264 902.32 218.619 910.68C214.614 914.668 211.227 918.334 207.84 922.001C206.622 922.736 206.143 923.377 205.664 924.017C202.413 927.439 199.731 930.782 197.05 934.124C195.913 935.331 195.274 936.089 194.636 936.846C193.583 937.647 193.156 938.283 192.728 938.919C191.572 940.257 191.067 941.439 190.562 942.621C189.456 945.149 188.893 947.283 188.331 949.417Z" fill="black"/>
</svg>
